<svg width="236" height="47" viewBox="0 0 236 47" fill="none" xmlns="http://www.w3.org/2000/svg">
<path d="M79.917 30.6164L88.5229 22.0471C88.88 21.6901 89.0631 21.1957 89.0631 20.5731C89.0631 20.0238 88.8617 19.5569 88.4497 19.1815C88.056 18.8153 87.5799 18.6322 87.0398 18.6322C86.4081 18.6322 85.8679 18.8885 85.4467 19.3646L73.0231 32.0172V20.802C73.0231 20.2069 72.8125 19.6942 72.3822 19.2639C71.9611 18.8428 71.4484 18.623 70.8441 18.623C70.249 18.623 69.7363 18.8428 69.3243 19.2639C68.9215 19.6851 68.7109 20.1978 68.7109 20.7928V44.4683C68.7109 45.0634 68.9215 45.5761 69.3243 45.979C69.7363 46.3909 70.2399 46.5924 70.835 46.5924C71.43 46.5924 71.9427 46.3818 72.3639 45.979C72.7942 45.567 73.0048 45.0543 73.0048 44.4592V37.4554L76.9415 33.4912L86.5454 45.7409C86.9574 46.3085 87.5341 46.6015 88.2574 46.6015C88.8525 46.6015 89.3652 46.3909 89.7772 45.9881C90.1892 45.5761 90.3906 45.0634 90.354 44.5141C90.354 44.038 90.18 43.5803 89.8413 43.15L79.917 30.6164Z" fill="#274266"/>
<path d="M113.02 26.9644C111.482 26.0854 109.678 25.646 107.673 25.646C105.641 25.646 103.828 26.0946 102.29 26.9644C100.743 27.8433 99.534 29.1067 98.6918 30.718C97.8586 32.3202 97.4375 34.1695 97.4375 36.2295C97.4375 38.2803 97.8586 40.1388 98.6918 41.7409C99.534 43.3523 100.743 44.6157 102.29 45.4946C103.828 46.3735 105.641 46.813 107.673 46.813C109.678 46.813 111.482 46.3643 113.02 45.4946C114.567 44.6157 115.785 43.3523 116.636 41.7409C117.488 40.1388 117.909 38.2894 117.909 36.2295C117.909 34.1787 117.478 32.3202 116.636 30.718C115.775 29.1158 114.558 27.8524 113.02 26.9644ZM110.502 42.1346C109.605 42.5924 108.653 42.8213 107.673 42.8213C106.666 42.8213 105.705 42.5924 104.798 42.1346C103.91 41.686 103.178 40.9627 102.601 39.9831C102.024 39.0035 101.731 37.7218 101.731 36.1929C101.731 34.6822 102.024 33.428 102.601 32.4392C103.169 31.4687 103.91 30.7455 104.789 30.3152C105.686 29.8757 106.657 29.6468 107.664 29.6468C108.644 29.6468 109.596 29.8757 110.502 30.3152C111.39 30.7546 112.132 31.4687 112.718 32.4484C113.304 33.428 113.597 34.6914 113.597 36.1929C113.597 37.7218 113.304 39.0035 112.718 39.9831C112.132 40.9627 111.381 41.686 110.502 42.1346Z" fill="#274266"/>
<path d="M143.676 17.4053C143.081 17.4053 142.569 17.6158 142.147 18.0187C141.717 18.4307 141.507 18.9525 141.507 19.5751V28.0254C139.721 26.4507 137.652 25.6542 135.354 25.6542C133.706 25.6542 132.122 26.0753 130.648 26.9176C129.174 27.7599 127.957 28.9958 127.041 30.598C126.126 32.2002 125.668 34.0953 125.668 36.2285C125.668 38.3617 126.135 40.2568 127.041 41.859C127.957 43.4611 129.165 44.7062 130.648 45.5394C132.122 46.3725 133.706 46.8028 135.354 46.8028C137.661 46.8028 139.721 46.0063 141.507 44.4316V44.4774C141.507 45.0725 141.726 45.5852 142.147 45.9971C142.569 46.4 143.081 46.6105 143.676 46.6105C144.271 46.6105 144.784 46.4 145.187 45.9971C145.599 45.5852 145.8 45.0816 145.8 44.4865V19.5842C145.8 18.9891 145.59 18.4764 145.187 18.0553C144.784 17.625 144.281 17.4053 143.676 17.4053ZM138.98 30.4698C139.923 30.9459 140.774 31.5868 141.507 32.365V40.1103C140.774 40.8885 139.923 41.5294 138.98 41.9963C138.009 42.4907 136.947 42.7379 135.839 42.7379C134.045 42.7379 132.644 42.1886 131.564 41.0533C130.493 39.9364 129.953 38.3067 129.953 36.2285C129.953 34.1502 130.493 32.5206 131.564 31.4037C132.644 30.2776 134.045 29.7191 135.839 29.7191C136.947 29.7282 138.009 29.9754 138.98 30.4698Z" fill="#274266"/>
<path d="M169.511 27.0269C168.064 26.1022 166.343 25.6353 164.375 25.6353C162.278 25.6353 160.484 26.1388 159.037 27.1276C157.6 28.1163 156.51 29.4255 155.824 31.0277C155.137 32.6116 154.789 34.3511 154.789 36.2187C154.789 39.5421 155.714 42.1605 157.536 44.0099C159.358 45.8592 161.921 46.8022 165.144 46.8022C166.709 46.8022 168.018 46.6557 169.016 46.3628C170.014 46.0698 171.04 45.6395 172.065 45.0536C172.862 44.5958 173.264 44.0007 173.264 43.2774C173.264 42.7281 173.063 42.2612 172.669 41.9041C172.285 41.5562 171.827 41.3731 171.323 41.3731C171.003 41.3731 170.71 41.4372 170.454 41.5654C169.712 41.9316 168.943 42.2246 168.174 42.4168C167.405 42.6091 166.489 42.7098 165.455 42.7098C163.541 42.7098 162.04 42.2429 160.996 41.3182C160.044 40.4759 159.44 39.3132 159.193 37.8392H171.745C172.395 37.8392 172.926 37.6286 173.328 37.2167C173.722 36.8047 173.924 36.3011 173.924 35.706C173.924 33.9116 173.548 32.227 172.807 30.7073C172.056 29.1967 170.948 27.9515 169.511 27.0269ZM161.967 29.9657C162.754 29.5995 163.56 29.4072 164.365 29.4072C165.171 29.4072 165.977 29.5903 166.764 29.9657C167.542 30.3319 168.202 30.9087 168.733 31.6869C169.199 32.3735 169.492 33.2158 169.602 34.2046H159.156C159.266 33.2158 159.559 32.3644 160.008 31.6869C160.539 30.9087 161.198 30.3227 161.967 29.9657Z" fill="#274266"/>
<path d="M203.826 30.9092H196.383C195.842 30.9092 195.321 31.1106 194.945 31.4951C194.57 31.8796 194.378 32.3374 194.378 32.8775C194.378 33.4177 194.57 33.8846 194.954 34.2691C195.339 34.6537 195.806 34.8459 196.346 34.8459H202.215V41.1081C200.292 42.1152 198.186 42.6279 195.962 42.6279C193.911 42.6279 192.116 42.1884 190.633 41.3278C189.15 40.4672 187.996 39.2771 187.209 37.7848C186.422 36.2833 186.019 34.5621 186.019 32.6487C186.019 30.5704 186.44 28.7485 187.282 27.2562C188.115 25.7639 189.278 24.6195 190.752 23.8505C192.235 23.0723 193.92 22.6786 195.778 22.6786C197.124 22.6786 198.397 22.8525 199.541 23.2004C200.695 23.5483 201.867 24.0702 203.048 24.7751C203.359 24.9308 203.689 25.0132 204.027 25.0132C204.622 25.0132 205.108 24.8209 205.474 24.4272C205.84 24.0427 206.023 23.5758 206.023 23.0448C206.023 22.6694 205.922 22.3124 205.739 22.0011C205.547 21.6807 205.309 21.4518 205.08 21.3328C203.689 20.4539 202.224 19.7581 200.713 19.2728C199.193 18.7784 197.408 18.5312 195.403 18.5312C192.885 18.5312 190.56 19.1263 188.491 20.2982C186.422 21.4701 184.765 23.1547 183.565 25.297C182.375 27.4302 181.762 29.9112 181.762 32.667C181.762 35.3678 182.338 37.8122 183.483 39.9362C184.627 42.0694 186.266 43.754 188.354 44.9442C190.432 46.1343 192.84 46.7294 195.513 46.7294C198.525 46.7294 201.519 45.997 204.394 44.5505C204.897 44.3125 205.3 43.9462 205.611 43.4702C205.913 42.9849 206.069 42.4356 206.069 41.8222V33.1614C206.069 32.5479 205.849 32.0078 205.419 31.5775C204.97 31.1289 204.439 30.9092 203.826 30.9092Z" fill="#274266"/>
<path d="M234.386 30.7268C233.535 29.1155 232.317 27.852 230.77 26.9731C229.232 26.0942 227.428 25.6548 225.423 25.6548C223.391 25.6548 221.578 26.1034 220.04 26.9731C218.493 27.852 217.284 29.1155 216.442 30.7268C215.609 32.329 215.188 34.1783 215.188 36.2383C215.188 38.289 215.609 40.1476 216.442 41.7497C217.284 43.361 218.493 44.6245 220.04 45.5034C221.578 46.3823 223.391 46.8217 225.423 46.8217C227.428 46.8217 229.232 46.3731 230.77 45.5034C232.317 44.6245 233.535 43.361 234.386 41.7497C235.238 40.1476 235.659 38.2982 235.659 36.2383C235.659 34.1783 235.228 32.329 234.386 30.7268ZM228.252 42.1342C227.355 42.592 226.403 42.8209 225.423 42.8209C224.416 42.8209 223.455 42.592 222.548 42.1342C221.66 41.6856 220.928 40.9624 220.351 39.9828C219.774 39.0031 219.481 37.7214 219.481 36.1925C219.481 34.6819 219.774 33.4276 220.351 32.4388C220.919 31.4592 221.66 30.7451 222.539 30.3148C223.436 29.8754 224.407 29.6465 225.414 29.6465C226.394 29.6465 227.346 29.8754 228.252 30.3148C229.14 30.7543 229.882 31.4684 230.468 32.448C231.054 33.4276 231.356 34.691 231.356 36.1925C231.356 37.7214 231.063 38.994 230.468 39.9828C229.882 40.9624 229.14 41.6856 228.252 42.1342Z" fill="#274266"/>
<path d="M19.255 38.8912C19.5296 39.1109 19.8592 39.2208 20.2071 39.2208C20.674 39.2208 21.1135 39.0102 21.4156 38.644L25.3157 33.7276L30.168 38.6165C30.461 38.9095 30.8455 39.0743 31.2575 39.0743C31.6603 39.0743 32.0448 38.9187 32.3378 38.6257C32.9421 38.0306 32.9421 37.0602 32.347 36.4559L27.2383 31.3015L32.4568 24.728C32.9787 24.0597 32.8688 23.0984 32.2096 22.5765C31.935 22.3568 31.5962 22.2378 31.2575 22.2378C30.7906 22.2378 30.3511 22.4484 30.0582 22.8146L24.1164 30.2944C24.1072 30.3036 24.1072 30.3036 24.0981 30.3127C24.0157 30.3951 23.9333 30.4958 23.8784 30.5965L21.7452 33.279V23.7759C21.7452 22.9244 21.0585 22.2378 20.2071 22.2378C19.3648 22.2378 18.6782 22.9244 18.6782 23.7759V37.5362C18.6782 37.5545 18.6782 37.5728 18.6782 37.5912C18.6507 38.0947 18.8613 38.5799 19.255 38.8912Z" fill="#E41A50"/>
<path d="M50.5928 30.9631L50.5195 30.8807C46.6835 26.9805 42.9207 22.9065 39.341 18.7774C35.7521 14.6393 32.2456 10.3363 28.9131 5.96923L31.6414 3.25927C31.9984 2.90222 32.1999 2.42614 32.1999 1.91345C32.1999 1.40075 32.0076 0.924681 31.6505 0.567626C31.2935 0.201416 30.8083 0 30.3047 0C29.8012 0 29.3251 0.19226 28.9681 0.549315L25.7912 3.69872L22.6143 0.567626C22.2573 0.210571 21.7812 0.0183105 21.2776 0.0183105C20.7649 0.0183105 20.2889 0.219726 19.9318 0.576781C19.5748 0.933836 19.3733 1.40991 19.3733 1.91345C19.3733 2.42614 19.5748 2.90222 19.9318 3.26843L22.5777 5.88683C19.1902 10.4004 15.6197 14.8315 11.9576 19.0429C8.42366 23.1079 4.72494 27.0904 0.962126 30.8715L0.952971 30.8807L0.870573 30.9722C-0.0541075 32.0342 -0.255523 33.4991 0.330413 34.7808C0.91635 36.0534 2.14315 36.8499 3.54391 36.8499H9.24763V45.0164C9.24763 46.0052 10.0533 46.82 11.0512 46.82H21.0762C22.065 46.82 22.8798 46.0143 22.8798 45.0164C22.8798 44.0185 22.0741 43.2128 21.0762 43.2128H12.8548V34.9914C12.8548 34.7076 12.7816 34.4146 12.6534 34.1674C12.3513 33.4808 11.6646 33.0413 10.923 33.0413H4.16647C7.83772 29.3426 11.4174 25.4699 14.8323 21.5423C18.6135 17.1753 22.2756 12.6434 25.7179 8.05663C29.142 12.5519 32.7583 16.9922 36.4662 21.2768C39.9361 25.2777 43.589 29.2327 47.3243 33.0596H40.522C40.2107 33.0596 39.9086 33.1329 39.6339 33.2794C38.8649 33.4991 38.3339 34.204 38.3339 35.0097V43.2311H30.1125C29.1237 43.2311 28.3089 44.0368 28.3089 45.0347C28.3089 46.0326 29.1145 46.8383 30.1125 46.8383H40.1375C41.1262 46.8383 41.9411 46.0326 41.9411 45.0347V36.8682H47.9469C49.3568 36.8682 50.5928 36.0717 51.1696 34.7808C51.7189 33.5082 51.4991 32.0159 50.5928 30.9631Z" fill="#274266"/>
</svg>
